<?xml version="1.0" encoding="UTF-8"?>
<svg id="Layer_1" data-name="Layer 1" xmlns="http://www.w3.org/2000/svg" viewBox="0 0 1080 1080">
  <defs>
    <style>
      .cls-1 {
        fill: #651210;
      }

      .cls-2 {
        fill: #fff;
      }

      .cls-3 {
        fill: #ec4724;
      }
    </style>
  </defs>
  <rect class="cls-1" width="1080" height="1080"/>
  <g>
    <path class="cls-3" d="M717.45,378.19c-1.29,2.27-2.85,4.59-4.74,7.05l-.07.08c-8.97,11.43-20.87,19.89-37.43,26.62-.43.18-.86.36-1.29.54,31.6,33.18,51,78.08,51,127.52,0,102.13-82.8,184.93-184.93,184.93s-184.93-82.8-184.93-184.93,82.8-184.93,184.93-184.93c38.05,0,73.41,11.5,102.82,31.21,4.86-1.34,9.72-2.73,14.43-4.23,2.72-.96,5.43-2.01,8.31-3.12l.34-.13c13.87-5.69,22.59-12.45,26.65-20.65l.06-.11c.42-.82.79-1.68,1.13-2.55-43.08-36.01-96.88-55.64-153.72-55.64-64.15,0-124.46,24.98-169.81,70.34-45.35,45.35-70.34,105.66-70.34,169.81s24.98,124.46,70.34,169.81c45.35,45.35,105.66,70.34,169.81,70.34s124.46-24.98,169.81-70.34c45.35-45.35,70.34-105.66,70.34-169.81,0-60.45-22.19-117.48-62.7-161.81Z"/>
    <path class="cls-2" d="M703.26,321.63c4.46,16.81,4.16,30.26-1.39,41.14-5.33,10.78-15.92,19.07-32.13,25.71-3.07,1.19-6.13,2.38-9.2,3.45-8.7,2.77-17.7,5.15-26.5,7.51-18.21,4.85-34.99,12.1-47.65,25.17-2.91,2.99-5.6,6.28-8.05,9.93-.4.58-.78,1.17-1.16,1.78-7.78,12.49-17.05,23.02-27.79,31.79-2.38,1.95-4.82,3.81-7.34,5.57-7.64,5.4-15.95,10.03-24.89,13.96-1.68.68-3.06,1.97-8.11,5.33,6.62,6.42,11.28,14.63,17.5,16.12,21.9,5.32,44.33,10.22,63.85-2.8,1.51-1,3.01-2.14,4.5-3.37.03-.01.04-.04.07-.06.1.2.2.4.3.61,7.02,10.53,11.06,23.15,11.06,36.72,0,19.36-8.3,36.84-21.52,48.95-.21.2-.42.4-.65.58-4.48,3.64-8.89,7.04-14.05,9.7-5.22,2.69-10.79,4.67-16.53,5.88-22.68,4.79-50.17,2.04-69.43-11.45-9.02-6.32-16.55-14.73-21.84-24.4-5.34-9.78-8.69-21.22-8.69-32.42,0-.58-.01-1.16-.01-1.75s.01-1.23.03-1.84c.79-49.48,33.76-91.36,78.83-105.53-58.62,3.78-105.22,52.73-105.22,112.28,0,53.99,38.16,99.18,88.89,110.05,7.61,1.58,15.52,2.48,23.63,2.48,11.71,0,23.02-1.8,33.65-5.14,15.99-5.01,30.43-13.51,42.49-24.62,14.77-13.53,25.91-31.01,31.76-50.76,3.01-10.14,4.63-20.9,4.63-32,0-17.43-3.96-33.96-11.06-48.7-.93-1.71-1.92-3.44-2.94-5.15-4.75-7.89-9.69-14.93-14.74-21.15,3.45-6.98,6.71-13.54,9.88-19.96,1.94-3.89,3.85-7.74,5.74-11.57-1.17-.79-2.36-1.58-3.55-2.48-4.43,2.25-8.86,4.5-13.29,6.72-5.48,2.74-10.97,5.48-16.48,8.21-1.19-1.49-2.48-2.87-3.65-4.34,2.73-3.11,5.23-6.69,7.87-10.02,2.82-3.57,5.82-6.83,9.44-8.97,10.97-6.42,23.43-10.58,35.7-14.54,5.43-1.87,10.87-3.75,16.02-5.93,12.65-5.14,24.22-11.97,33.22-23.43,1.98-2.57,3.75-5.25,5.04-7.91,8.6-16.23,6.44-34.21-6.23-49.35ZM561.47,473.71c3.27-9.2,8.01-12.17,15.82-12.27-3.65,9.2-8.11,12.86-15.82,12.27Z"/>
  </g>
</svg>